<svg width="188" height="20" viewBox="0 0 188 20" xmlns="http://www.w3.org/2000/svg" xmlns:xlink="http://www.w3.org/1999/xlink"><title>logo</title><desc>Created using Figma</desc><g transform="translate(-10 -22)"><path fill="#FFF" d="M10 22h188v20H10z"/><clipPath id="a" clip-rule="evenodd"><path d="M0 0h375v1514H0V0z" fill="#FFF"/></clipPath><g clip-path="url(#a)"><path d="M0 0h375v1514H0V0z" fill="#F7F7F7"/><use xlink:href="#b" fill="#FFF"/><use xlink:href="#c" transform="translate(10 22)" fill="#424242"/><use xlink:href="#d" transform="translate(142.5 36.19)" fill="#424242"/><use xlink:href="#e" transform="translate(147.897 36.112)" fill="#424242"/><use xlink:href="#f" transform="translate(151.935 36.192)" fill="#424242"/><use xlink:href="#g" transform="translate(156.886 39.603)" fill="#424242"/><use xlink:href="#h" transform="translate(161.067 31.721)" fill="#424242"/><use xlink:href="#i" transform="translate(168.795 31.705)" fill="#424242"/><use xlink:href="#j" transform="translate(178.252 31.72)" fill="#424242"/><use xlink:href="#k" transform="translate(189.448 31.04)" fill="#424242"/></g></g><defs><path id="b" fill-rule="evenodd" d="M0 0h375v64H0V0z"/><path id="c" fill-rule="evenodd" d="M45.864.799h5.73v11.67c0 1.332-.098 2.251-.416 3.052-1.494 3.508-7.811 3.846-11.533 3.846-3.747 0-10.065-.338-11.558-3.846-.318-.8-.417-1.72-.417-3.052V.8h5.754v10.63c0 1.525.638 2.179 1.642 2.493 1.028.338 2.742.508 4.554.508 1.837 0 3.576-.17 4.603-.508 1.028-.314 1.641-.968 1.641-2.494V.798zm69.638 0h3.012v17.893h-5.582V.799h2.57zm-12.387 0h5.387v17.893h-5.191L90.306 7.918v10.774h-5.584V.799h5.657l12.736 10.532V.8zM76.84 1.04c3.698 1.163 4.016 4.237 4.041 8.644.024 4.383-.27 7.482-4.016 8.644-1.887.603-4.776 1.038-8.915 1.038-4.09 0-6.98-.435-8.865-1.038-3.748-1.162-4.041-4.261-4.016-8.644.024-4.407.343-7.481 4.04-8.644C60.995.437 63.884 0 67.95 0c4.114 0 7.005.437 8.89 1.041zM60.726 9.71c0 2.953.294 3.898 2.35 4.334 1.103.241 2.499.41 4.874.41 2.4 0 3.869-.169 4.972-.41 2.056-.436 2.35-1.38 2.35-4.334 0-3.39-.294-4.093-2.35-4.504-1.103-.22-2.572-.388-4.972-.388-2.375 0-3.771.169-4.873.388-2.057.411-2.351 1.113-2.351 4.504zm-40.99 3.123c.956.63 3.062 1.572 5.461 1.427v4.164c-.956.34-2.473.34-2.473.34-1.665 0-4.017-.387-6.562-2.057l-6.71-4.431-3.893 2.881v3.535H0V.799h5.56v8.595L16.454.8h8.154L13.884 9.055l5.852 3.778z"/><path id="d" fill-rule="evenodd" d="M2.465 4.06c.238 0 .424-.025.574-.064a.895.895 0 0 0 .362-.182c.092-.08.173-.18.241-.298.073-.122.146-.267.227-.432a.186.186 0 0 1 .081-.093.171.171 0 0 1 .089-.029c.034 0 .066.011.089.037.026.022.028.063.014.107l-.173 1.236c-.014.069-.045.112-.088.134-.05.022-.101.03-.16.03H.106c-.037 0-.067-.01-.084-.035a.185.185 0 0 1 .01-.195.172.172 0 0 1 .1-.056c.137-.022.252-.046.344-.066a.539.539 0 0 0 .206-.088.275.275 0 0 0 .104-.149c.014-.06.032-.142.043-.246.003-.047.014-.104.014-.17.004-.062.007-.145.01-.24.007-.097.007-.217.018-.352v-.62c0-.38-.01-.69-.02-.926a8.737 8.737 0 0 0-.036-.49C.801.77.793.684.78.62A.306.306 0 0 0 .693.46.396.396 0 0 0 .51.361a2.762 2.762 0 0 0-.336-.07.204.204 0 0 1-.102-.06.183.183 0 0 1-.03-.1C.04.095.048.067.063.042.08.014.107 0 .15 0h3.495c.08 0 .135.014.176.04.033.02.054.068.054.144v1.12c0 .045-.008.076-.044.101a.17.17 0 0 1-.103.035.151.151 0 0 1-.103-.038.197.197 0 0 1-.06-.116c-.03-.318-.111-.547-.254-.684-.135-.139-.329-.205-.594-.205h-1.03V2l1.635-.088c.02 0 .041.016.048.04.012.026.02.063.02.107 0 .073-.02.155-.049.233-.03.08-.063.12-.11.12l-1.543-.046.001.55c.006.144.006.263.01.36.001.095.008.173.01.235.006.06.015.114.016.16.023.096.04.17.067.229.027.05.07.09.127.114.055.022.13.04.221.043.087 0 .197.003.325.003"/><path id="e" fill-rule="evenodd" d="M0 3.163c0-.102.038-.152.113-.152.031 0 .07.01.099.038a.23.23 0 0 1 .07.114c.025.134.079.264.143.395a1.265 1.265 0 0 0 1.132.7c.556 0 .836-.186.836-.546a.562.562 0 0 0-.066-.283.96.96 0 0 0-.203-.249 4.01 4.01 0 0 0-.357-.27 12.037 12.037 0 0 0-.538-.352 8.088 8.088 0 0 1-.448-.29 2.793 2.793 0 0 1-.37-.303 1.345 1.345 0 0 1-.255-.37 1.2 1.2 0 0 1-.092-.467c0-.223.05-.405.144-.55a1.07 1.07 0 0 1 .37-.345C.731.147.904.084 1.1.052a3.657 3.657 0 0 1 1.344.022c.239.048.432.107.586.181v1.097c0 .037-.019.064-.034.087a.144.144 0 0 1-.089.034.173.173 0 0 1-.101-.041c-.03-.026-.05-.07-.063-.13-.054-.3-.181-.53-.39-.689C2.148.451 1.88.37 1.557.37c-.25 0-.426.048-.543.148a.503.503 0 0 0-.176.395c0 .093.018.178.05.246a.685.685 0 0 0 .157.204c.075.07.17.142.288.22.121.08.268.168.434.266.227.142.43.27.605.384.173.116.317.233.434.352.121.119.215.244.276.382.058.134.091.296.091.478a.98.98 0 0 1-.152.56 1.064 1.064 0 0 1-.402.374 1.867 1.867 0 0 1-.569.208 3.078 3.078 0 0 1-.643.065c-.264 0-.522-.028-.771-.082a2.588 2.588 0 0 1-.621-.23L0 3.163z"/><path id="f" fill-rule="evenodd" d="M1.198.397c-.53.026-.821.358-.884.988-.009.051-.027.093-.058.116a.194.194 0 0 1-.106.037.15.15 0 0 1-.1-.037.116.116 0 0 1-.05-.099V.184C0 .098.032.047.095.028A.42.42 0 0 1 .235 0h4.107c.037 0 .08.007.145.028.06.019.088.08.088.18v1.194a.117.117 0 0 1-.048.1.145.145 0 0 1-.096.036.172.172 0 0 1-.103-.037c-.037-.023-.052-.065-.063-.116C4.201.74 3.908.41 3.38.397L2.754.371a1.183 1.183 0 0 0-.026.261c-.009.125-.009.279-.016.455-.005.173-.005.374-.005.59v.98c0 .482.012.852.047 1.108a.467.467 0 0 0 .07.21c.034.05.085.087.149.116.065.029.146.054.238.072l.347.056c.046.011.078.029.099.057.02.032.034.065.034.099 0 .038-.014.066-.029.094a.09.09 0 0 1-.077.037H1.06c-.045 0-.065-.013-.082-.037a.153.153 0 0 1-.029-.095c0-.033.015-.066.035-.098a.183.183 0 0 1 .1-.057c.139-.023.26-.046.357-.062a.866.866 0 0 0 .235-.076.325.325 0 0 0 .135-.125.56.56 0 0 0 .063-.211c.01-.119.017-.262.026-.426.009-.162.016-.387.016-.671v-.292c0-.23-.005-.457-.007-.673A19.055 19.055 0 0 0 1.884.627C1.878.497 1.864.41 1.86.363l-.662.034z"/><path id="g" fill-rule="evenodd" d="M0 .58A.567.567 0 0 1 .57 0c.16 0 .298.057.416.168a.58.58 0 0 1 .169.413c0 .153-.06.289-.169.4a.597.597 0 0 1-.417.161.565.565 0 0 1-.405-.161A.55.55 0 0 1 0 .58"/><path id="h" fill-rule="evenodd" d="M4.061 6.595c0 .337.025.61.075.813.05.208.143.377.28.508.139.132.339.237.599.309.265.075.609.142 1.034.205a.31.31 0 0 1 .19.126.342.342 0 0 1 .061.207.259.259 0 0 1-.054.165.176.176 0 0 1-.15.072H.545c-.139 0-.208-.085-.208-.254 0-.072.02-.142.065-.205.04-.065.105-.1.19-.11.384-.043.702-.102.952-.177.25-.072.448-.176.592-.308.143-.129.247-.305.304-.521.06-.213.089-.488.089-.813V1.786c0-.146-.04-.238-.123-.269a.803.803 0 0 0-.293-.047H.256c-.085 0-.148-.026-.193-.078A.296.296 0 0 1 0 1.202a.32.32 0 0 1 .049-.175.252.252 0 0 1 .16-.11l3.47-.903A.438.438 0 0 1 3.808 0c.171 0 .253.09.253.269v6.326z"/><path id="i" fill-rule="evenodd" d="M4.076 5.237c.1 0 .17.025.22.078a.271.271 0 0 1 .07.19c0 .104-.045.19-.135.252a.946.946 0 0 1-.337.142c-.134.031-.27.05-.407.056a7.952 7.952 0 0 1-.351.008c-.429 0-.828-.058-1.21-.173a2.997 2.997 0 0 1-.998-.521 2.49 2.49 0 0 1-.68-.864A2.746 2.746 0 0 1 0 3.225c0-.493.099-.94.308-1.334.198-.397.47-.733.802-1.013.34-.28.722-.495 1.153-.647C2.696.078 3.136 0 3.583 0 4.84 0 5.819.309 6.523.925c.696.618 1.044 1.501 1.044 2.648 0 .983-.209 1.869-.63 2.659a6.92 6.92 0 0 1-1.604 2.023 7.399 7.399 0 0 1-2.1 1.3c-.756.305-1.47.458-2.143.458-.333 0-.5-.1-.5-.3a.39.39 0 0 1 .076-.23.332.332 0 0 1 .23-.134 6.645 6.645 0 0 0 2.011-.642 5.424 5.424 0 0 0 1.552-1.185 5.287 5.287 0 0 0 1.006-1.67c.239-.631.36-1.333.36-2.103 0-.971-.214-1.706-.642-2.206C4.755 1.042 4.218.79 3.567.79c-.595 0-1.06.183-1.392.547-.331.365-.497.861-.497 1.494 0 .727.19 1.31.57 1.747.379.44.99.659 1.828.659"/><path id="j" fill-rule="evenodd" d="M0 4.58c0-.695.126-1.325.383-1.887a4.477 4.477 0 0 1 1.036-1.448c.44-.4.953-.704 1.545-.923A5.442 5.442 0 0 1 4.843 0c.673 0 1.292.109 1.86.33a4.33 4.33 0 0 1 1.46.932c.408.4.732.882.961 1.447.227.563.345 1.188.345 1.87 0 .683-.118 1.31-.345 1.871a4.236 4.236 0 0 1-.96 1.445c-.41.4-.898.713-1.462.931a5.066 5.066 0 0 1-1.859.333c-.712 0-1.367-.11-1.957-.323a4.393 4.393 0 0 1-1.53-.925 4.31 4.31 0 0 1-.999-1.445C.116 5.902 0 5.274 0 4.579zm1.884-.05c0 .496.062.966.178 1.415.116.45.295.842.544 1.19.244.349.551.624.917.83.37.204.81.307 1.32.307.513 0 .985-.084 1.417-.252.432-.169.802-.41 1.105-.725a3.34 3.34 0 0 0 .71-1.146c.173-.449.256-.953.256-1.524 0-.504-.07-.985-.217-1.443a3.451 3.451 0 0 0-.636-1.193 3.081 3.081 0 0 0-1.062-.801C5.986.986 5.492.886 4.925.886c-.544 0-1.008.093-1.393.285a2.52 2.52 0 0 0-.942.779 3.255 3.255 0 0 0-.538 1.16c-.111.442-.168.914-.168 1.42z"/><path id="k" fill-rule="evenodd" d="M3.487 4.602c-.099 0-.17-.026-.216-.08a.266.266 0 0 1-.072-.189c0-.105.045-.188.136-.253a.92.92 0 0 1 .337-.14c.133-.033.267-.054.407-.058.138-.005.255-.006.352-.006.428 0 .831.057 1.207.174.38.115.711.288 1 .52.29.233.517.52.68.863.167.341.25.736.25 1.179 0 .494-.101.94-.306 1.335a3.18 3.18 0 0 1-.805 1.012 3.694 3.694 0 0 1-1.154.65 3.93 3.93 0 0 1-1.318.23c-1.261 0-2.238-.31-2.938-.927C.352 8.297 0 7.413 0 6.262c0-.654.101-1.26.313-1.818.208-.56.482-1.07.832-1.534a6.871 6.871 0 0 1 1.191-1.241c.447-.365.913-.67 1.392-.917.48-.25.954-.435 1.422-.565C5.62.063 6.051 0 6.447 0c.329 0 .496.1.496.299A.395.395 0 0 1 6.87.53c-.048.069-.124.113-.232.134a7.097 7.097 0 0 0-1.95.635A5.61 5.61 0 0 0 3.132 2.42a4.979 4.979 0 0 0-1.021 1.597c-.247.612-.368 1.302-.368 2.074 0 .97.213 1.706.642 2.206.428.501.965.75 1.613.75.598 0 1.061-.18 1.39-.545.335-.365.499-.862.499-1.495 0-.728-.187-1.31-.569-1.748-.377-.437-.989-.657-1.83-.657"/></defs></svg>