<svg id="layer" xmlns="http://www.w3.org/2000/svg" viewBox="0 0 650 117"><style>.st0{fill:#fff}</style><path class="st0" d="M0 3.2h93.5v20.5H58V114H35.3V23.7H0V3.2zm259.3 74.1c0 11.5-3.6 20.8-10.8 27.9-7.2 7.1-16.2 10.6-27.2 10.6-11.2 0-20.4-3.5-27.5-10.5-7.2-7.1-10.8-16.4-10.8-28V30.9h22.6v48.3c0 4.8 1.5 8.7 4.4 11.6 2.9 2.9 6.7 4.3 11.3 4.3 4.3 0 8-1.4 10.9-4.3 2.9-2.9 4.4-6.7 4.4-11.6V30.9h22.6c.1 0 .1 46.4.1 46.4zm64.2-46.4v20h-6.1c-6.8 0-12.2 1.8-16.2 5.4-4 3.6-6.1 9-6.1 16.2V114h-22.6V30.9h20.8V41c5.7-7.4 13.3-11.1 22.8-11.1 2.7 0 5.2.3 7.4 1zm96.6-22.5c8.6 4.9 15.3 11.6 20.1 20.2l-17.1 12.1C415.4 28.3 404.7 22 391.5 22c-10.4 0-19 3.4-25.7 10.2-6.7 6.8-10.1 15.6-10.1 26.4 0 10.6 3.4 19.3 10.1 26.1 6.7 6.7 15.3 10.2 25.7 10.2 13.3 0 23.8-6.2 31.6-18.7l17.1 12.1c-4.8 8.6-11.5 15.3-20 20.2-8.6 4.9-18.2 7.3-28.8 7.3-16.6 0-30.4-5.5-41.8-16.5-11.4-11.1-17-24.7-17-40.8s5.7-29.9 17.1-40.8C361.1 6.4 375 1 391.5 1c10.5.1 20.1 2.6 28.6 7.4zm173.2 22.5v20h-6.1c-6.8 0-12.2 1.8-16.2 5.4-4 3.6-6.1 9-6.1 16.2V114h-22.6V30.9h20.8V41c5.7-7.4 13.3-11.1 22.8-11.1 2.9 0 5.3.3 7.4 1zm56.7 64v19c-5.3 1.3-10.5 2.1-15.6 2.1-10.5 0-18.6-2.6-24.5-7.8-5.9-5.2-8.7-13-8.7-23.5V9.9h22.6v21h23.4V50h-23.4v32.7c0 4.7 1.2 8 3.7 10s6.4 2.9 11.7 2.9c1.4 0 4.9-.2 10.8-.7zM109.6 56.1c-4 4.3-6.1 9.8-6.1 16.4 0 6.6 2.1 12.1 6.1 16.2 4 4.2 9.1 6.3 15.4 6.3 6.2 0 11.3-2.2 15.3-6.4 4.1-4.2 6.1-9.7 6.1-16.1 0-6.5-2.1-11.9-6.1-16.3-4.1-4.3-9.2-6.5-15.3-6.5-6.3-.1-11.4 2.1-15.4 6.4m46.9-14.6c8.7 8.4 13.1 18.6 13.1 30.8s-4.3 22.5-13.1 30.8c-8.7 8.4-19.3 12.6-31.6 12.6s-22.9-4.1-31.4-12.5-12.8-18.6-12.8-30.9c0-12.2 4.3-22.5 12.9-30.8 8.6-8.4 19.1-12.5 31.5-12.5 12.2 0 22.7 4.1 31.4 12.5m320.9 10.3c-3.6 3-6.1 7.1-7.4 12.3h37.8c-.1-5.1-1.9-9.2-5.3-12.3-3.5-3-7.7-4.6-12.6-4.6-4.7.1-8.9 1.6-12.5 4.6m50.9 28.3H470c1.4 5.2 4.2 9.3 8.2 12.2 4.1 2.8 9.1 4.2 15.2 4.2 8.1 0 15.8-2.8 23.1-8.4l9.4 15.4c-9.9 8.3-20.9 12.4-33.1 12.4-13.1 0-23.9-4.1-32.5-12.5-8.6-8.4-12.9-18.7-12.9-30.9s4.1-22.5 12.5-30.8c8.3-8.4 18.6-12.6 30.9-12.6 11.5 0 20.9 3.7 28.2 11.1 7.3 7.4 10.8 16.6 10.8 27.6.1 3.8-.4 8-1.5 12.3"/></svg>